<svg xmlns="http://www.w3.org/2000/svg" xmlns:xlink="http://www.w3.org/1999/xlink" viewBox="0 0 410.5 410.5"><defs>
  <style>.cls-1,.cls-12,.cls-14,.cls-18,.cls-3{fill:none;}.cls-2{fill:#7ea679;}.cls-17,.cls-2{stroke:#7ea679;}.cls-14,.cls-15,.cls-17,.cls-18,.cls-2,.cls-3{stroke-miterlimit:10;}.cls-12,.cls-14,.cls-15,.cls-18,.cls-3{stroke:#fff;}.cls-12,.cls-14,.cls-15,.cls-17,.cls-3{stroke-linecap:round;}.cls-3{stroke-width:3px;stroke-dasharray:11.93 11.93;}.cls-4{font-size:60px;}.cls-10,.cls-11,.cls-13,.cls-15,.cls-17,.cls-4,.cls-5,.cls-6,.cls-7,.cls-8,.cls-9{fill:#fff;}.cls-10,.cls-11,.cls-4,.cls-5,.cls-6,.cls-7,.cls-8,.cls-9{font-family:MoonFlowerBold, Moon Flower Bold;}.cls-5{font-size:56px;}.cls-6{font-size:56px;}.cls-7{font-size:56px;}.cls-8{font-size:56px;}.cls-9{font-size:62px;}.cls-10{font-size:56px;}.cls-11{font-size:56px;}.cls-12{stroke-width:2px;}.cls-14,.cls-15,.cls-17{stroke-width:5px;}.cls-16{clip-path:url(#clip-path);}.cls-18{stroke-width:6px;}
</style><clipPath id="clip-path" transform="translate(-216.98 -91.52)"><rect class="cls-1" x="269.33" y="74.41" width="310.02" height="385.26"/></clipPath></defs><title>logo_1</title><g id="Layer_1" data-name="Layer 1"><circle class="cls-2" cx="205.25" cy="205.25" r="204.75"/><circle class="cls-3" cx="205" cy="205" r="186"/><text x="-216.98" y="-91.52"></text><text class="cls-4" transform="translate(107.69 115.81) rotate(-40.66)">W</text><text class="cls-5" transform="matrix(0.85, -0.53, 0.53, 0.85, 127.51, 99.35)">e</text><text class="cls-6" transform="matrix(0.91, -0.41, 0.41, 0.91, 142.06, 90.26)">s</text><text class="cls-7" transform="translate(158.81 82.65) rotate(-16.46)">o</text><text class="cls-8" transform="translate(176.38 77.64) rotate(-10.07)">l</text><text class="cls-6" transform="translate(190.15 74.94) rotate(-2.88)">y</text><text class="cls-6" transform="matrix(1, 0.09, -0.09, 1, 210.75, 74.08)"> </text><text class="cls-9" transform="translate(227.41 75.47) rotate(12.33)">O</text><text class="cls-10" transform="translate(247.25 79.8) rotate(20.92)">g</text><text class="cls-11" transform="translate(265.94 86.99) rotate(28.68)">r</text><text class="cls-10" transform="matrix(0.81, 0.59, -0.59, 0.81, 281.76, 95.6)">o</text><text class="cls-11" transform="translate(298.27 107.78) rotate(44.56)">d</text><line class="cls-12" x1="174.1" y1="59.09" x2="186.11" y2="60.43"/><path class="cls-13" d="M407.31,248.17" transform="translate(-216.98 -91.52)"/><line class="cls-14" x1="112.82" y1="272.85" x2="298.46" y2="272.85"/><path class="cls-15" d="M501.51,377.36a81.57,81.57,0,0,1-159.77,0Z" transform="translate(-216.98 -91.52)"/><g class="cls-16"><path class="cls-13" d="M523.48,165.83s14-1.91,13.45-2.83" transform="translate(-216.98 -91.52)"/><path class="cls-12" d="M523.48,165.83s14-1.91,13.45-2.83" transform="translate(-216.98 -91.52)"/></g></g><g id="Layer_2" data-name="Layer 2"><path class="cls-17" d="M341.73,253.9a81.57,81.57,0,0,1,159.77,0Z" transform="translate(-216.98 -91.52)"/><path class="cls-17" d="M421.29,264.69a54,54,0,0,1,105.8,0Z" transform="translate(-216.98 -91.52)"/><path class="cls-17" d="M311.61,265.08a55.61,55.61,0,0,1,108.93,0Z" transform="translate(-216.98 -91.52)"/><path class="cls-17" d="M341.34,318.53a81.57,81.57,0,0,1,159.78,0Z" transform="translate(-216.98 -91.52)"/><path class="cls-17" d="M266.21,321.12a81.57,81.57,0,0,1,159.77,0Z" transform="translate(-216.98 -91.52)"/><path class="cls-17" d="M419.58,321.12a81.57,81.57,0,0,1,159.77,0Z" transform="translate(-216.98 -91.52)"/></g><g id="Layer_3" data-name="Layer 3"><line class="cls-18" x1="204.36" y1="227.71" x2="204.36" y2="273.28"/></g></svg>
